<svg width="50" height="50" viewBox="0 0 50 50" fill="none" xmlns="http://www.w3.org/2000/svg">
<rect width="50" height="50" fill="#AAFF55"/>
<path d="M28.48 25.94C24.6 25.94 22.7 24.96 22.78 23C22.78 21.16 24.64 20.24 28.36 20.24C29.24 20.24 30.08 20.34 30.88 20.54C32.2 19.22 32.86 17.22 32.86 14.54C32.86 9.9 29.76 7.58 23.56 7.58C20.32 7.58 17.24 8.28 14.32 9.68C13.24 10.2 12.26 10.68 11.38 11.12C10.54 11.56 9.76 11.78 9.04 11.78C8.32 11.78 7.96 11.56 7.96 11.12C7.96 10.6 8.36 9.84 9.16 8.84C9.96 7.8 11.08 6.76 12.52 5.72C16.2 3.16 20.38 1.86 25.06 1.82C31.18 1.82 35.68 3.04 38.56 5.48C41.04 7.52 42.28 10.3 42.28 13.82C42.28 17.9 40.28 21.02 36.28 23.18C40.12 25.38 42.4 28.08 43.12 31.28C43.36 32.4 43.48 33.88 43.48 35.72C43.48 37.56 42.98 39.3 41.98 40.94C40.98 42.58 39.64 43.96 37.96 45.08C34.6 47.24 30.3 48.32 25.06 48.32C21.34 48.32 17.2 47.48 12.64 45.8C9.6 44.68 7.36 43.34 5.92 41.78C5.2 41.02 4.84 40.26 4.84 39.5C4.88 38.74 5.26 38.36 5.98 38.36C6.74 38.36 8.16 38.62 10.24 39.14V39.08C10.24 35.96 10.6 32.76 11.32 29.48C12.56 23.76 14 19.28 15.64 16.04C17.4 12.44 19.22 10.64 21.1 10.64C21.62 10.64 21.88 11.54 21.88 13.34C21.88 15.14 21.7 16.98 21.34 18.86C21.02 20.74 20.66 22.6 20.26 24.44C19.9 26.24 19.54 27.88 19.18 29.36C18.86 30.84 18.7 31.9 18.7 32.54L18.1 41.6C20.46 42.24 22.46 42.56 24.1 42.56C25.74 42.56 27.22 42.28 28.54 41.72C31.86 40.32 33.52 37.88 33.52 34.4C33.52 32.32 33.32 30.6 32.92 29.24C32.52 27.88 31.8 26.68 30.76 25.64C29.84 25.84 29.08 25.94 28.48 25.94Z" fill="#225500"/>
</svg>
