<svg width="120" height="120" viewBox="0 0 120 120" fill="none" xmlns="http://www.w3.org/2000/svg">
<rect width="120" height="120" fill="#AAFF55"/>
<path d="M67.224 63.072C58.9467 63.072 54.8933 60.9813 55.064 56.8C55.064 52.8747 59.032 50.912 66.968 50.912C68.8453 50.912 70.6373 51.1253 72.344 51.552C75.16 48.736 76.568 44.4693 76.568 38.752C76.568 28.8533 69.9547 23.904 56.728 23.904C49.816 23.904 43.2453 25.3973 37.016 28.384C34.712 29.4933 32.6213 30.5173 30.744 31.456C28.952 32.3947 27.288 32.864 25.752 32.864C24.216 32.864 23.448 32.3947 23.448 31.456C23.448 30.3467 24.3013 28.7253 26.008 26.592C27.7147 24.3733 30.104 22.1547 33.176 19.936C41.0267 14.4747 49.944 11.7013 59.928 11.616C72.984 11.616 82.584 14.2187 88.728 19.424C94.0187 23.776 96.664 29.7067 96.664 37.216C96.664 45.92 92.3973 52.576 83.864 57.184C92.056 61.8773 96.92 67.6373 98.456 74.464C98.968 76.8533 99.224 80.0107 99.224 83.936C99.224 87.8613 98.1573 91.5733 96.024 95.072C93.8907 98.5707 91.032 101.515 87.448 103.904C80.28 108.512 71.1067 110.816 59.928 110.816C51.992 110.816 43.16 109.024 33.432 105.44C26.9467 103.051 22.168 100.192 19.096 96.864C17.56 95.2427 16.792 93.6213 16.792 92C16.8773 90.3787 17.688 89.568 19.224 89.568C20.8453 89.568 23.8747 90.1227 28.312 91.232V91.104C28.312 84.448 29.08 77.6213 30.616 70.624C33.2613 58.4213 36.3333 48.864 39.832 41.952C43.5867 34.272 47.4693 30.432 51.48 30.432C52.5893 30.432 53.144 32.352 53.144 36.192C53.144 40.032 52.76 43.9573 51.992 47.968C51.3093 51.9787 50.5413 55.9467 49.688 59.872C48.92 63.712 48.152 67.2107 47.384 70.368C46.7013 73.5253 46.36 75.7867 46.36 77.152L45.08 96.48C50.1147 97.8453 54.3813 98.528 57.88 98.528C61.3787 98.528 64.536 97.9307 67.352 96.736C74.4347 93.7493 77.976 88.544 77.976 81.12C77.976 76.6827 77.5493 73.0133 76.696 70.112C75.8427 67.2107 74.3067 64.6507 72.088 62.432C70.1253 62.8587 68.504 63.072 67.224 63.072Z" fill="#225500"/>
</svg>
